<svg width="22" height="21" viewBox="0 0 22 21" fill="none" xmlns="http://www.w3.org/2000/svg">
<path d="M9.66026 1.01543C8.47564 1.21286 7.72821 1.45261 6.76923 1.9603C4.73846 3.03209 3.39872 4.44235 2.38333 6.62825L1.83333 7.79876H1.22692C0.761538 7.79876 0.535897 7.88338 0.310256 8.12312C0.0282051 8.41927 0 8.60261 0 10.2949C0 11.9449 0.0282051 12.1706 0.296154 12.509C0.55 12.8334 0.691026 12.8757 1.41026 12.8757H2.24231L2.90513 14.2295C3.82179 16.1052 5.20385 17.5295 6.93846 18.3616C7.61538 18.6859 8.53205 19.0244 8.98333 19.1231C9.53333 19.2359 9.92821 19.4193 10.1821 19.6872C10.6756 20.1808 11.3103 20.1949 11.7756 19.7154C12.3962 19.109 12.1987 18.1077 11.4231 17.8257C10.9295 17.6565 10.6333 17.727 10.1962 18.1359C9.8859 18.418 9.85769 18.418 8.99744 18.1782C6.16282 17.3885 3.89231 15.1321 3.17308 12.368C2.90513 11.3244 2.90513 9.36415 3.17308 8.32056C3.82179 5.8385 5.75385 3.66671 8.10897 2.77825C9.97051 2.07312 12.5936 2.15774 14.441 2.98979C16.1474 3.75133 17.8962 5.65517 18.5731 7.51671C18.9256 8.44748 18.9679 8.77184 18.9679 10.1962C18.9679 11.0847 18.9115 12.0577 18.8551 12.3398L18.7423 12.8757H20.0679C21.2667 12.8757 21.4218 12.8475 21.6897 12.5513C21.9718 12.2411 22 12.0859 22 10.3231C22 8.50389 21.9859 8.39107 21.6756 8.10902C21.45 7.89748 21.1679 7.79876 20.759 7.79876H20.1808L19.5603 6.48722C18.5167 4.34363 17.0923 2.86286 15.1321 1.88979C13.5808 1.11415 11.2962 0.761581 9.66026 1.01543Z" fill="white"/>
<path d="M9.73077 3.86435C6.98077 4.31563 4.63974 6.96691 4.4141 9.88614C4.21666 12.481 5.59872 14.9067 7.98205 16.1477C9.85769 17.1349 11.959 17.1913 13.7359 16.3169L14.4692 15.9643L15.9359 16.3733C16.7538 16.599 17.4308 16.7823 17.4449 16.7682C17.459 16.7541 17.2756 16.0772 17.05 15.2733L16.641 13.7926L16.9231 13.2849C17.0641 13.0169 17.2897 12.4105 17.4167 11.9592C17.9949 9.68871 17.3462 7.41819 15.6115 5.65537C14.6949 4.7246 13.6936 4.1746 12.4526 3.92076C11.3949 3.69512 10.8731 3.68101 9.73077 3.86435ZM8.8 9.50537C9.29359 10.0836 9.27949 10.6759 8.75769 11.1977C7.92564 12.0156 6.76923 11.522 6.76923 10.3374C6.76923 9.13871 8.05256 8.61691 8.8 9.50537ZM11.8603 9.47717C12.1423 9.75922 12.2692 10.0272 12.2692 10.3374C12.2692 10.9438 11.6064 11.6067 11 11.6067C10.3936 11.6067 9.73077 10.9438 9.73077 10.3374C9.73077 10.0272 9.85769 9.75922 10.1397 9.47717C10.7038 8.92717 11.2962 8.92717 11.8603 9.47717ZM14.6949 9.22332C14.85 9.30794 15.0615 9.58999 15.1744 9.85794C15.3436 10.2669 15.3436 10.4079 15.1744 10.8169C14.8077 11.7054 13.9192 11.8746 13.2423 11.1977C12.7205 10.6759 12.7064 10.0836 13.2 9.50537C13.5949 9.03999 14.1449 8.92717 14.6949 9.22332Z" fill="white"/>
</svg>
